


<svg width="440" height="364" viewBox="0 0 440 364" fill="none" xmlns="http://www.w3.org/2000/svg">
<path fill-rule="evenodd" clip-rule="evenodd" d="M356.502 21.2545C387.339 63.2984 450.257 102.865 437.554 150.717C423.889 202.191 341.543 182.33 304.424 217.42C274.442 245.764 283.98 305.494 249.764 328.243C209.942 354.719 147.916 382.34 109.173 347.233C66.3935 308.469 112.218 233.511 87.1983 180.938C66.629 137.715 -6.27578 133.111 -14.861 86.5989C-23.0852 42.043 16.2742 4.92487 50.2904 -19.0162C80.183 -40.0551 122.009 -25.0316 157.483 -34.6997C197.257 -45.5395 227.86 -90.3494 269.288 -78.7018C310.964 -66.9846 329.626 -15.3891 356.502 21.2545Z" fill="#006400"/>
</svg>
