<svg width="304" height="304" viewBox="0 0 304 304" fill="none" xmlns="http://www.w3.org/2000/svg">
<path fill-rule="evenodd" clip-rule="evenodd" d="M151.953 43.7365C189.188 38.0721 220.95 -13.6021 254.544 3.42741C286.088 19.4174 264.477 70.9716 273.265 105.232C281.213 136.217 308.381 162.271 303.393 193.869C298.122 227.262 274.031 255.195 246.498 274.806C219.137 294.295 184.505 310.026 151.953 301.738C120.904 293.832 112.811 253.055 86.9226 234.176C61.1115 215.353 15.4745 222.468 2.95203 193.076C-9.38357 164.123 20.171 134.82 32.2017 105.739C43.0664 79.4762 44.5439 44.6015 69.7802 31.5352C94.9886 18.4834 123.89 48.0057 151.953 43.7365Z" fill="#006400"/>
</svg>
